<svg version="1.2" xmlns="http://www.w3.org/2000/svg" viewBox="0 0 329 32" width="329" height="32">
	<defs>
		<radialGradient id="g1" cx="0" cy="0" r="1" gradientUnits="userSpaceOnUse" gradientTransform="matrix(5804.165,0,0,5804.165,939.732,526.082)">
			<stop offset="0" stop-color="#9dd5f6"/>
			<stop offset=".071" stop-color="#98d3f5"/>
			<stop offset=".157" stop-color="#89cef3"/>
			<stop offset=".252" stop-color="#70c6ef"/>
			<stop offset=".351" stop-color="#4ebbea"/>
			<stop offset=".455" stop-color="#23ade3"/>
			<stop offset=".5" stop-color="#0da6e0"/>
			<stop offset="1" stop-color="#2e77bc"/>
		</radialGradient>
		<linearGradient id="g2" x2="1" gradientUnits="userSpaceOnUse" gradientTransform="matrix(62,0,0,20,87,14.999)">
			<stop offset="0" stop-color="#1d1c45"/>
			<stop offset="1" stop-color="#174489"/>
		</linearGradient>
	</defs>
	<style>
		.s0 { fill: #323e48 } 
		.s1 { fill: #00adbb } 
		.s2 { fill: url(#g1) } 
		.s3 { fill: #ffffff } 
		.s4 { fill: url(#g2) } 
		.s5 { fill: #000000 } 
		.s6 { fill: #ff5f00 } 
		.s7 { fill: #eb001b } 
		.s8 { fill: #f79e1b } 
	</style>
	<g id="👉Method-View">
		<g id="PWI_Method_02_FooterAlternatives">
			<g id="logo-band-iyzicoileode">
				<g id="Troy-Logo">
					<g id="Group_1_">
						<path id="Path_6_" fill-rule="evenodd" class="s0" d="m259.24 27.42h-0.4c0 0-0.1 0-0.1 0.1v0.1h-0.2v-0.2c0-0.1 0.1-0.2 0.2-0.2h1.3c0.1 0 0.2 0 0.1 0.2v0.2h-0.2v-0.1-0.1h-0.5l-0.4 1.8h-0.2z"/>
						<path id="Shape_5_" class="s0" d="m260.24 28.02c0 0-0.1-0.1 0 0l-0.2-0.1v-0.2h0.2c0.1 0 0.2 0 0.1 0.2l-0.1 0.7c0 0.2 0 0.4 0.2 0.4 0.3 0 0.6-0.3 0.6-0.6l0.1-0.7h0.3l-0.3 1.2v0.1h0.1v0.2h-0.1c-0.1 0-0.2-0.1-0.1-0.2v-0.1c0-0.1 0-0.1 0-0.1-0.1 0.2-0.3 0.4-0.6 0.4-0.4 0-0.5-0.2-0.4-0.5zm0.4-0.8h0.2l-0.1 0.3h-0.1zm0.4 0h0.2v0.3h-0.2z"/>
						<path id="Path_7_" fill-rule="evenodd" class="s0" d="m261.84 28.02c0 0 0-0.1 0 0l-0.1-0.1v-0.2h0.2c0.1 0 0.2 0 0.1 0.2v0.1c0 0.1 0 0.1 0 0.1 0.1-0.2 0.3-0.4 0.5-0.4h0.1v0.2c0 0 0 0-0.1 0-0.2 0-0.4 0.2-0.5 0.4 0 0.1-0.1 0.2-0.1 0.3l-0.1 0.6h-0.2z"/>
						<path id="Path_8_" fill-rule="evenodd" class="s0" d="m262.94 27.52q0-0.15 0 0l-0.2-0.1v-0.2h0.2c0.1 0 0.2 0 0.1 0.2l-0.1 0.9h0.1c0.1 0 0.1 0 0.2-0.1l0.5-0.5h0.2l-0.5 0.6c-0.1 0.1-0.1 0.1-0.1 0.1 0 0 0 0 0.1 0.1l0.1 0.5c0 0 0 0.1 0.1 0.1h0.1v0.2h-0.2c-0.1 0-0.2 0-0.2-0.1l-0.2-0.7c0-0.1-0.1-0.1-0.1-0.1h-0.1l-0.2 0.8h-0.2z"/>
						<path id="Shape_6_" class="s0" d="m264.54 28.02c0 0 0-0.1-0.1-0.1h-0.3l0.1-0.2h0.5c0.3 0 0.4 0 0.3 0.2l-0.6 1c0 0 0 0.1 0.1 0.1h0.3l-0.1 0.2h-0.4c-0.3 0-0.4-0.1-0.3-0.2zm0.4-0.8h0.4l-0.1 0.3h-0.4z"/>
						<path id="Path_9_" fill-rule="evenodd" class="s0" d="m264.64 29.62c0.1 0 0.2-0.1 0.3-0.2l0.1-0.2-0.2-1.2c0 0 0-0.1-0.1-0.1v-0.2h0.1c0.1 0 0.2 0 0.2 0.1l0.2 0.9c0 0.1 0 0.2 0 0.2 0 0 0-0.1 0.1-0.2l0.5-0.9c0.1-0.1 0.1-0.1 0.2-0.1h0.1v0.2c0 0-0.1 0-0.1 0.1l-1 1.5c-0.1 0.1-0.3 0.2-0.5 0.2-0.2 0-0.2-0.1-0.2-0.1l0.1-0.1c0 0 0 0.1 0.2 0.1z"/>
						<path id="Shape_7_" class="s0" d="m266.94 27.72c0.4 0 0.6 0.3 0.5 0.7v0.1h-1.1c-0.1 0.3 0.1 0.5 0.4 0.5 0.3 0 0.5-0.2 0.5-0.2l0.1 0.1c0 0-0.2 0.2-0.6 0.2-0.4 0-0.7-0.3-0.6-0.7 0.1-0.4 0.4-0.7 0.8-0.7zm0.3 0.6c0.1-0.3-0.1-0.4-0.3-0.4-0.2 0-0.5 0.2-0.6 0.4z"/>
						<path id="Path_10_" fill-rule="evenodd" class="s0" d="m267.94 27.22h0.2l-0.2 0.5h-0.2z"/>
						<path id="Path_11_" fill-rule="evenodd" class="s0" d="m268.34 28.02c0 0 0-0.1 0 0l-0.1-0.1v-0.2h0.2c0.1 0 0.2 0 0.1 0.2v0.1c0 0.1 0 0.1 0 0.1 0.1-0.1 0.3-0.4 0.6-0.4 0.4 0 0.4 0.2 0.4 0.5l-0.1 0.7v0.1h0.1v0.2h-0.2c-0.1 0-0.2-0.1-0.1-0.2l0.1-0.7c0-0.2 0.1-0.4-0.2-0.4-0.2 0-0.5 0.2-0.6 0.4 0 0.1 0 0.1-0.1 0.2l-0.1 0.7h-0.2z"/>
						<path id="Shape_8_" class="s0" d="m270.34 28.02c0 0 0-0.1-0.1-0.1h-0.3l0.1-0.2h0.5c0.3 0 0.4 0 0.3 0.2l-0.5 1c0 0 0 0.1 0.1 0.1h0.3l-0.1 0.2h-0.5c-0.3 0-0.4-0.1-0.3-0.2zm0.4-0.8h0.4l-0.1 0.2h-0.4z"/>
						<path id="Path_12_" fill-rule="evenodd" class="s0" d="m270.74 28.02c0 0 0-0.1 0 0l-0.2-0.1v-0.2h0.2c0.1 0 0.2 0 0.1 0.2v0.1c0 0.1 0 0.1 0 0.1 0.1-0.1 0.4-0.4 0.7-0.4 0.3 0 0.4 0.2 0.3 0.5l-0.1 0.7v0.1h0.1v0.2h-0.2c-0.1 0-0.2-0.1-0.1-0.2l0.1-0.7c0-0.2 0.1-0.4-0.2-0.4-0.2 0-0.5 0.2-0.6 0.4 0 0.1 0 0.1-0.1 0.2l-0.2 0.7h-0.1z"/>
						<path id="Shape_9_" class="s0" d="m274.24 27.22c0.6 0 0.9 0.4 0.8 1-0.1 0.6-0.7 1-1.2 1-0.6 0-0.9-0.4-0.8-1 0.1-0.6 0.6-1 1.2-1zm-0.5 1.8c0.4 0 0.9-0.4 1-0.8 0.1-0.5-0.2-0.8-0.6-0.8-0.4 0-0.9 0.4-1 0.8-0.1 0.5 0.2 0.8 0.6 0.8zm0.3-2.2h0.2l-0.1 0.2h-0.2zm0.4 0h0.2l-0.1 0.2h-0.2z"/>
						<path id="Shape_10_" class="s0" d="m275.94 27.72c0.3 0 0.4 0.3 0.4 0.3 0 0 0 0 0-0.1l0.1-0.5v-0.1h-0.1v-0.2h0.2c0.1 0 0.2 0 0.1 0.2l-0.3 1.5v0.1h0.1v0.2h-0.2c-0.1 0-0.2-0.1-0.1-0.2 0-0.1 0-0.1 0-0.1 0 0-0.2 0.3-0.5 0.3-0.4 0-0.5-0.3-0.4-0.7 0-0.4 0.3-0.7 0.7-0.7zm0.3 0.8c0.1-0.3 0-0.6-0.3-0.6-0.2 0-0.5 0.2-0.6 0.6-0.1 0.3 0.1 0.6 0.3 0.6 0.2-0.1 0.5-0.2 0.6-0.6z"/>
						<path id="Shape_11_" class="s0" d="m277.64 27.72c0.4 0 0.5 0.3 0.5 0.6v0.1h-1.1c-0.1 0.3 0.1 0.6 0.4 0.6 0.3 0 0.5-0.2 0.5-0.2l0.1 0.1c0 0-0.3 0.2-0.6 0.2-0.4 0-0.7-0.3-0.6-0.7 0-0.4 0.4-0.7 0.8-0.7zm0.2 0.6c0.1-0.3-0.1-0.4-0.3-0.4-0.2 0-0.5 0.1-0.6 0.4z"/>
						<path id="Path_13_" fill-rule="evenodd" class="s0" d="m278.44 28.02c0.1 0 0-0.1 0 0l-0.2-0.1v-0.2h0.2c0.1 0 0.2 0 0.1 0.2v0.1c0 0.1 0 0.1 0 0.1 0.2-0.2 0.5-0.4 0.7-0.4 0.3 0 0.4 0.1 0.4 0.3 0.1-0.1 0.3-0.3 0.6-0.3 0.3 0 0.4 0.2 0.3 0.5l-0.1 0.7v0.1h0.1v0.2h-0.2c-0.1 0-0.2-0.1-0.1-0.2l0.2-0.7c0.1-0.2 0-0.4-0.2-0.4-0.2 0-0.4 0.2-0.5 0.4 0 0.1-0.1 0.1-0.1 0.2l-0.1 0.7h-0.2l0.2-0.8c0-0.2 0.1-0.4-0.2-0.4-0.2 0-0.4 0.2-0.5 0.4 0 0.1-0.1 0.1-0.1 0.2l-0.3 0.6h-0.2z"/>
						<path id="Shape_12_" class="s0" d="m281.74 27.72c0.4 0 0.5 0.3 0.5 0.6v0.1h-1.1c-0.1 0.3 0.1 0.6 0.4 0.6 0.3 0 0.5-0.2 0.5-0.2l0.1 0.1c0 0-0.3 0.2-0.6 0.2-0.4 0-0.7-0.3-0.6-0.7 0-0.4 0.4-0.7 0.8-0.7zm0.2 0.6c0.1-0.3-0.1-0.4-0.3-0.4-0.2 0-0.5 0.1-0.6 0.4z"/>
						<path id="Path_14_" fill-rule="evenodd" class="s0" d="m283.64 28.32l-0.3-0.9c0-0.1-0.1-0.1-0.1-0.1v-0.2h0.1c0.1 0 0.2 0 0.2 0.2l0.2 0.5c0 0.1 0.1 0.2 0.1 0.2 0 0 0.1-0.1 0.2-0.2l0.4-0.4c0.1-0.1 0.2-0.2 0.3-0.2h0.1v0.2c-0.1 0-0.1 0-0.1 0.1l-0.7 0.9-0.2 0.8h-0.4z"/>
						<path id="Shape_13_" class="s0" d="m285.34 27.72c0.4 0 0.7 0.3 0.6 0.7-0.1 0.4-0.5 0.7-0.9 0.7-0.4 0-0.7-0.3-0.6-0.7 0.1-0.3 0.5-0.7 0.9-0.7zm-0.3 1.3c0.3 0 0.6-0.2 0.7-0.6 0.1-0.3-0.1-0.5-0.4-0.5-0.3 0-0.6 0.2-0.7 0.5-0.1 0.4 0.1 0.6 0.4 0.6zm0.1-1.8h0.2l-0.1 0.2h-0.2zm0.4 0h0.2v0.2h-0.2z"/>
						<path id="Path_15_" fill-rule="evenodd" class="s0" d="m286.34 28.02c0 0 0-0.1 0 0l-0.2-0.1v-0.2h0.3c0.1 0 0.2 0 0.1 0.2v0.1c0 0.1 0 0.1 0 0.1 0.1-0.1 0.3-0.4 0.6-0.4 0.3 0 0.4 0.2 0.3 0.5l-0.1 0.7c0 0 0 0.1 0.1 0.1h0.1v0.2h-0.2c-0.1 0-0.2-0.1-0.1-0.2l0.1-0.7c0-0.2 0.1-0.4-0.2-0.4-0.2 0-0.5 0.2-0.6 0.4-0.1 0.1-0.1 0.1-0.1 0.2l-0.1 0.7h-0.2z"/>
						<path id="Path_16_" fill-rule="evenodd" class="s0" d="m288.04 27.92h-0.2v-0.2h0.2l0.1-0.4h0.2l-0.1 0.4h0.4v0.2h-0.4l-0.2 0.7c-0.1 0.3 0.1 0.4 0.2 0.4h0.1v0.2c0 0 0 0-0.1 0-0.2 0-0.5-0.1-0.4-0.5z"/>
						<path id="Shape_14_" class="s0" d="m289.54 27.72c0.4 0 0.5 0.3 0.5 0.6v0.1h-1.1c-0.1 0.3 0.1 0.6 0.4 0.6 0.3 0 0.5-0.2 0.5-0.2l0.1 0.1c0 0-0.2 0.2-0.6 0.2-0.4 0-0.7-0.3-0.6-0.7 0-0.4 0.4-0.7 0.8-0.7zm0.3 0.6c0.1-0.3-0.1-0.4-0.3-0.4-0.2 0-0.5 0.1-0.6 0.4z"/>
						<path id="Path_17_" fill-rule="evenodd" class="s0" d="m290.44 28.02c0 0 0-0.1 0 0l-0.2-0.1v-0.2h0.2c0.1 0 0.2 0 0.1 0.2v0.1c0 0.1 0 0.1 0 0.1 0.2-0.2 0.4-0.4 0.6-0.4 0.3 0 0.4 0.1 0.4 0.3 0.1-0.1 0.4-0.3 0.6-0.3q0.45 0 0.3 0.6l-0.1 0.7v0.1h0.1v0.2h-0.2c-0.1 0-0.2-0.1-0.1-0.2l0.1-0.7c0.1-0.2 0-0.4-0.2-0.4-0.2 0-0.4 0.2-0.5 0.4 0 0.1-0.1 0.1-0.1 0.2l-0.1 0.7h-0.2l0.2-0.8c0-0.2 0.1-0.4-0.2-0.4-0.2 0-0.4 0.2-0.5 0.4 0 0.1 0 0.1-0.1 0.2l-0.1 0.7h-0.2z"/>
						<path id="Shape_15_" class="s0" d="m293.34 28.02c0 0 0-0.1-0.1-0.1h-0.3l0.1-0.2h0.5c0.3 0 0.4 0 0.3 0.2l-0.5 1c0 0 0 0.1 0.1 0.1h0.3l-0.1 0.2h-0.5c-0.3 0-0.4-0.1-0.3-0.2zm0.4-0.8h0.4l-0.1 0.2h-0.4z"/>
					</g>
					<g id="Group_2_">
						<g id="Path_18_">
							<path id="Path" fill-rule="evenodd" class="s0" d="m311 8.4c-0.8 0-1.7 0.5-2.1 1.3l-3.8 8.7-1.4-8.7c-0.2-0.8-0.7-1.3-1.6-1.3h-4.9l4.2 14.5q0.15 0.45 0 0.9c-0.2 1.2-1.3 2.2-2.5 2.2h-2.7c-0.7 0-1.1 0.4-1.4 1.4l-0.6 3.6h4.8c2.5 0 5.4-1.2 7.4-4.7l9.6-17.9z"/>
							<path id="Path" fill-rule="evenodd" class="s0" d="m263.8 4c1.4 0 2.1 0.6 1.9 2l-0.4 2.3h3.3l-0.7 4.1h-3.4l-0.9 5.1c-0.3 1.8 1.4 2 2.5 2 0.2 0 0.4 0 0.5 0l-0.8 4.5c-0.2 0-0.5 0.1-1 0.1-2.5 0-7.2-0.7-6.3-5.9l1-5.8h-2.5l0.7-4.1h2.4l0.8-4.3z"/>
							<g id="Group">
								<path id="Path" fill-rule="evenodd" class="s1" d="m291.59 8.5l-0.9 4.8c1 0.5 1.8 1.6 1.8 2.8 0 1.6-1.2 3-2.8 3.2l-0.8 4.8c0.1 0 0.3 0 0.5 0 4.4 0 8-3.6 8-8-0.1-3.5-2.5-6.6-5.8-7.6z"/>
								<path id="Path" fill-rule="evenodd" class="s1" d="m287.79 19c-1-0.5-1.8-1.6-1.8-2.8 0-1.6 1.2-3 2.8-3.2l0.9-4.8c-0.1 0-0.3 0-0.5 0-4.4 0-8 3.6-8 8 0 3.6 2.4 6.6 5.7 7.6z"/>
							</g>
							<path id="Path" fill-rule="evenodd" class="s0" d="m270.5 8.4h2.8c1.4 0 2.1 0.6 1.9 2l-0.3 1.7c1.1-2.1 3.3-3.9 5.7-3.9 0.3 0 0.6 0.1 0.6 0.1l-0.9 5.2c0 0-0.4-0.1-1.1-0.1-1.3 0-3.4 0.4-4.6 2.7q-0.45 0.9-0.6 2.1l-1 5.8h-5.3z"/>
						</g>
						<path id="Shape_16_" class="s0" d="m316 24.7c0 0.5-0.2 0.9-0.5 1.2-0.3 0.3-0.7 0.5-1.2 0.5-0.5 0-0.9-0.2-1.2-0.5-0.3-0.3-0.5-0.7-0.5-1.2 0-0.5 0.2-0.9 0.5-1.2 0.3-0.3 0.7-0.5 1.2-0.5 0.5 0 0.9 0.2 1.2 0.5 0.3 0.3 0.5 0.7 0.5 1.2zm-0.3 0c0-0.4-0.1-0.7-0.4-1-0.3-0.3-0.6-0.4-1-0.4-0.4 0-0.7 0.1-1 0.4-0.3 0.3-0.4 0.6-0.4 1 0 0.4 0.1 0.7 0.4 1 0.3 0.3 0.6 0.4 1 0.4 0.4 0 0.7-0.1 1-0.4 0.3-0.3 0.4-0.6 0.4-1zm-0.7 0.9h-0.3l-0.4-0.8h-0.3v0.8h-0.3v-1.8h0.6c0.2 0 0.3 0.1 0.4 0.2 0.1 0.1 0.2 0.2 0.2 0.4 0 0.3-0.1 0.4-0.4 0.5zm-0.3-1.3c0-0.1 0-0.2-0.1-0.2-0.1 0-0.2-0.1-0.3-0.1h-0.3v0.6h0.3c0.1 0 0.2 0 0.3-0.1 0 0 0.1-0.1 0.1-0.2z"/>
					</g>
				</g>
				<g id="American_Express">
					<path id="Path_5_" fill-rule="evenodd" class="s2" d="m224.2 1h-43.2v30h43.2v-9.9"/>
					<g id="Group">
						<path id="Shape_3_" class="s3" d="m181.1 14.8h2l0.5-1.1h1l0.5 1.1h4v-0.9l0.4 0.9h2.1l0.4-0.9v0.9h10v-1.8h0.2c0.1 0 0.2 0 0.2 0.2v1.6h5.2v-0.4c0.4 0.2 1.1 0.4 1.9 0.4h2.2l0.5-1.1h1l0.5 1.1h4.2v-1.1l0.6 1.1h3.4v-7.1h-3.3v0.9l-0.6-0.9h-3.4v0.9l-0.4-0.8h-4.6c-0.8 0-1.5 0.1-2 0.4v-0.5h-3.2v0.4c-0.4-0.3-0.9-0.4-1.4-0.4h-11.7l-0.7 1.8-0.8-1.8h-3.7v0.9l-0.4-0.9h-3.1l-1.5 3.4zm23.5-4.7c0 0.8-0.5 1.2-0.8 1.3 0.3 0.1 0.5 0.3 0.6 0.4 0.2 0.3 0.2 0.5 0.2 0.9v1h-1.2v-0.6c0-0.3 0-0.7-0.2-1-0.2-0.2-0.4-0.2-0.9-0.2h-1.3v1.8h-1.2v-5h2.8c0.6 0 1.1 0 1.5 0.2 0.3 0.3 0.5 0.6 0.5 1.2zm16.1 3.7h-1.7l-2.3-3.8v3.8h-2.4l-0.5-1.1h-2.5l-0.5 1.1h-1.4c-0.6 0-1.3-0.1-1.7-0.6-0.4-0.4-0.6-1-0.6-1.9 0-0.8 0.1-1.4 0.6-2q0.6-0.6 1.8-0.6h1.2v1.1h-1.1q-0.6 0-0.9 0.3c-0.2 0.2-0.3 0.6-0.3 1.1q0 0.75 0.3 1.2c0.2 0.2 0.5 0.3 0.8 0.3h0.5l1.7-4h1.8l2 4.8v-4.8h1.8l2.1 3.5v-3.5h1.2zm-26.7 0h-1.2v-4l-1.7 4h-1.1l-1.7-4v4h-2.5l-0.4-1.1h-2.5l-0.5 1.1h-1.3l2.1-5.1h1.8l2 4.8v-4.8h2l1.6 3.4 1.4-3.4h2zm4.9 0h-4v-5.1h4v1.1h-2.8v0.9h2.7v1h-2.7v1h2.8zm4.1-3c-0.2 0.1-0.4 0.1-0.6 0.1h-1.4v-1.1h1.5c0.2 0 0.4 0 0.6 0.1 0.2 0.1 0.3 0.2 0.3 0.4-0.1 0.2-0.2 0.4-0.4 0.5zm3.5 3h-1.2v-5.1h1.2zm6.9-2.2l-0.8-2-0.8 2zm-28.5 0l-0.8-2-0.8 2z"/>
						<path id="Shape_4_" class="s3" d="m223.8 21.9c-0.3 0.4-0.9 0.6-1.6 0.6h-2.3v-1.1h2.3c0.2 0 0.4 0 0.5-0.1 0.1-0.1 0.1-0.2 0.1-0.3 0-0.1-0.1-0.3-0.1-0.3-0.1-0.1-0.2-0.1-0.4-0.1-1.1 0-2.5 0-2.5-1.6 0-0.7 0.5-1.5 1.7-1.5h2.4v-1h-2.2c-0.7 0-1.2 0.2-1.5 0.4v-0.5h-3.3c-0.5 0-1.1 0.1-1.4 0.4v-0.4h-5.9v0.4c-0.5-0.3-1.3-0.4-1.6-0.4h-4v0.4c-0.4-0.4-1.2-0.4-1.7-0.4h-4.3l-1 1.1-0.9-1.1h-6.5v7.1h6.3l1-1.1 1 1.1h3.9v-1.7h0.4c0.5 0 1.1 0 1.7-0.2v1.9h3.2v-1.8h0.2c0.2 0 0.2 0 0.2 0.2v1.6h9.8c0.6 0 1.3-0.2 1.6-0.5v0.5h3.1c0.6 0 1.3-0.1 1.8-0.3zm0-3.4h-2.2c-0.2 0-0.4 0-0.5 0.1-0.1 0.1-0.2 0.2-0.2 0.4 0 0.2 0.1 0.3 0.3 0.4 0.1 0 0.3 0.1 0.5 0.1h0.6c0.7 0 1.1 0.1 1.4 0.4l0.1 0.1zm-4.8 1.3c0.2 0.2 0.4 0.6 0.4 1.1 0 1.1-0.7 1.6-1.9 1.6h-2.3v-1.1h2.3c0.2 0 0.4 0 0.5-0.1 0.1-0.1 0.1-0.2 0.1-0.3 0-0.1-0.1-0.3-0.1-0.3-0.1-0.1-0.2-0.1-0.4-0.1-1.1 0-2.5 0-2.5-1.6 0-0.7 0.5-1.5 1.7-1.5h2.4v1.1h-2.2c-0.2 0-0.4 0-0.5 0.1-0.1 0.1-0.2 0.2-0.2 0.4 0 0.2 0.1 0.3 0.3 0.4 0.1 0 0.3 0.1 0.5 0.1h0.6c0.6-0.2 1 0 1.3 0.2zm-10.1 0.3c0.3 0.1 0.5 0.3 0.6 0.4 0.2 0.2 0.2 0.5 0.2 0.9v1h-1.2v-0.6c0-0.3 0-0.8-0.2-1-0.2-0.2-0.4-0.2-0.9-0.2h-1.3v1.8h-1.2v-5h2.8c0.6 0 1 0 1.4 0.2 0.4 0.2 0.6 0.5 0.6 1.1 0 0.9-0.5 1.3-0.8 1.4zm-0.7-0.6c-0.2 0.1-0.4 0.1-0.6 0.1h-1.5v-1.1h1.5c0.2 0 0.4 0 0.6 0.1 0.2 0.1 0.2 0.2 0.2 0.5 0 0.2-0.1 0.3-0.2 0.4zm2.2-2.1h4v1h-2.8v0.9h2.7v1h-2.7v1h2.8v1.1h-4zm-6.1 1.7c0 1.4-1 1.7-2.1 1.7h-1.5v1.7h-2.3l-1.4-1.7-1.5 1.7h-4.8v-5.1h4.8l1.5 1.7 1.5-1.7h3.8c1 0 2 0.3 2 1.7zm-4.7 2.9l-1.8-2.1 1.8-2zm-4.8-0.6h-2.9v-1h2.6v-1h-2.6v-0.9h3l1.3 1.5zm7.5-1.6h-1.5v-1.3h1.6c0.4 0 0.7 0.2 0.7 0.6 0 0.4-0.3 0.7-0.8 0.7z"/>
					</g>
				</g>
				<g id="visa">
					<path id="Fill-1" fill-rule="evenodd" class="s4" d="m117.7 5.4l-4.1 19.3h-5l4.1-19.3zm26 16.4h-6.4l-1 2.9h-5.3l7.6-17.9c0.3-0.8 1.1-1.4 2.1-1.4h4.3l4 19.3h-4.6zm-0.8-4l-1.5-7.3-2.6 7.3zm-20.3 7.2c-2.3 0-4.4-0.5-5.6-1l0.9-4.2c1.1 0.5 2.6 1.2 5.1 1.2 1.4 0 3-0.6 3-1.9 0-0.8-0.6-1.5-2.6-2.4-1.9-1-4.4-2.5-4.4-5.3 0.1-3.8 3.5-6.4 8.5-6.4 2 0 3.5 0.4 4.7 0.9l-0.9 4.1c-2.2-1.1-4.2-1-4.9-0.9-1.4 0.2-2.1 0.9-2.1 1.6-0.1 2.3 7 2.6 7 7.7 0 4-3.5 6.6-8.7 6.6zm-12.1-19.6l-8.1 19.3h-5.3l-4-15.4c-0.2-1-0.5-1.3-1.2-1.7-1.2-0.7-3.2-1.3-4.9-1.6l0.1-0.6h8.5c1.1 0 2.1 0.7 2.3 2l2.1 11.2 5.2-13.2z"/>
				</g>
				<g id="mastercard-seeklogo.com">
					<path id="Shape" class="s5" d="m23.1 30.9v-2c0-0.8-0.5-1.3-1.3-1.3-0.4 0-0.8 0.1-1.1 0.6-0.2-0.4-0.6-0.6-1.1-0.6-0.3 0-0.7 0.1-0.9 0.5v-0.4h-0.7v3.2h0.7v-1.8c0-0.6 0.3-0.8 0.8-0.8 0.5 0 0.7 0.3 0.7 0.8v1.8h0.7v-1.8c0-0.6 0.3-0.8 0.8-0.8 0.5 0 0.7 0.3 0.7 0.8v1.8zm10.4-3.2h-1.1v-1h-0.7v1h-0.7v0.6h0.6v1.5c0 0.7 0.3 1.2 1.1 1.2 0.3 0 0.6-0.1 0.9-0.2l-0.2-0.6c-0.2 0.1-0.4 0.2-0.6 0.2-0.3 0-0.5-0.2-0.5-0.5v-1.4h1.1v-0.8zm5.9-0.1c-0.4 0-0.7 0.2-0.8 0.5v-0.4h-0.7v3.2h0.7v-1.8c0-0.5 0.2-0.8 0.7-0.8 0.1 0 0.3 0 0.4 0.1l0.2-0.7c-0.1-0.1-0.3-0.1-0.5-0.1zm-9 0.3c-0.3-0.2-0.8-0.3-1.3-0.3-0.8 0-1.3 0.4-1.3 1 0 0.5 0.4 0.8 1.1 0.9h0.3q0.6 0.15 0.6 0.3c0 0.2-0.3 0.4-0.7 0.4-0.5 0-0.8-0.2-1.1-0.3l-0.3 0.5c0.4 0.3 0.9 0.4 1.4 0.4 0.9 0 1.5-0.4 1.5-1 0-0.6-0.4-0.9-1.1-1h-0.3c-0.3 0-0.5-0.1-0.5-0.3 0-0.2 0.2-0.4 0.6-0.4 0.4 0 0.8 0.2 1 0.3zm18.7-0.3c-0.4 0-0.7 0.2-0.8 0.5v-0.4h-0.7v3.2h0.7v-1.8c0-0.5 0.2-0.8 0.7-0.8 0.1 0 0.3 0 0.4 0.1l0.2-0.7c-0.2-0.1-0.4-0.1-0.5-0.1zm-9 1.7c0 1 0.7 1.7 1.7 1.7 0.5 0 0.8-0.1 1.1-0.4l-0.2-0.6c-0.3 0.2-0.5 0.3-0.8 0.3-0.6 0-1-0.4-1-1 0-0.6 0.4-1 1-1 0.3 0 0.6 0.1 0.8 0.3l0.3-0.6c-0.3-0.3-0.7-0.4-1.1-0.4-1.1 0-1.8 0.7-1.8 1.7zm6.5 0v-1.6h-0.7v0.4c-0.2-0.3-0.6-0.5-1-0.5-0.9 0-1.6 0.7-1.6 1.7 0 1 0.7 1.7 1.6 1.7 0.5 0 0.8-0.2 1-0.5v0.4h0.7zm-2.5 0c0-0.6 0.4-1 1-1 0.6 0 1 0.4 1 1 0 0.6-0.4 1-1 1-0.7 0-1-0.5-1-1zm-8.4-1.7c-0.9 0-1.6 0.7-1.6 1.7 0 1 0.7 1.7 1.6 1.7 0.5 0 0.9-0.1 1.3-0.4l-0.3-0.6q-0.45 0.3-0.9 0.3c-0.4 0-0.9-0.2-1-0.8h2.4v-0.3c0-0.9-0.6-1.6-1.5-1.6zm0 0.6c0.4 0 0.7 0.3 0.8 0.8h-1.7c0.1-0.5 0.4-0.8 0.9-0.8zm17.4 1.1v-2.8h-0.7v1.7c-0.2-0.3-0.6-0.5-1-0.5-0.9 0-1.6 0.7-1.6 1.7 0 1 0.7 1.7 1.6 1.7 0.5 0 0.8-0.2 1-0.5v0.4h0.7zm-2.6 0c0-0.6 0.4-1 1-1 0.6 0 1 0.4 1 1 0 0.6-0.4 1-1 1-0.6 0-1-0.5-1-1zm-23.5 0v-1.6h-0.7v0.4c-0.2-0.3-0.6-0.5-1-0.5-0.9 0-1.6 0.7-1.6 1.7 0 1 0.7 1.7 1.6 1.7 0.5 0 0.8-0.2 1-0.5v0.4h0.7zm-2.6 0c0-0.6 0.4-1 1-1 0.6 0 1 0.4 1 1 0 0.6-0.4 1-1 1-0.6 0-1-0.5-1-1z"/>
					<path id="Rectangle" fill-rule="evenodd" class="s6" d="m30.2 3.5h10.5v18.7h-10.5z"/>
					<path id="Path" fill-rule="evenodd" class="s7" d="m30.9 12.9c0-3.8 1.8-7.2 4.6-9.4-2.1-1.5-4.7-2.5-7.5-2.5-6.6 0-12 5.3-12 11.9 0 6.6 5.4 11.9 12 11.9 2.8 0 5.4-1 7.4-2.5-2.7-2.2-4.5-5.6-4.5-9.4z"/>
					<path id="Path_1_" fill-rule="evenodd" class="s8" d="m55 12.9c0 6.6-5.4 11.9-12 11.9-2.8 0-5.4-1-7.4-2.5 2.8-2.2 4.6-5.6 4.6-9.4 0-3.8-1.8-7.2-4.6-9.4 1.9-1.5 4.5-2.5 7.3-2.5 6.7 0 12.1 5.4 12.1 11.9z"/>
				</g>
			</g>
		</g>
	</g>
</svg>